PathFileType	4	(X/Y/Z)	C:\Users\Basilio\Documents\Thesis Gigler\squatting_fais\c3dfiles\047\SJ_pre5\markers_experimental.trc
DataRate	CameraRate	NumFrames	NumMarkers	Units	OrigDataRate	OrigDataStartFrame	OrigNumFrames
200.000000	200.000000	4	61	mm	200.000000	696	1393
Frame#	Time	FHD			LBHD			RBHD			C7			T10			CLAV			LSHO			LUUPA			LMUPA			LDUPA			LLEP			LMEP			LRAD			LUL			LRFIN			RSHO			RUPA1			RMUPA			RDUPA			RLEP			RMEP			RRAD			RUL			RUFIN			LASI			RASI			USACR			LSACR			RSACR			LTHI1			LTHI2			LTHI3			LTHI4			LLFC			LMFC			LTIB1			LTIB2			LTIB3			LTIB4			LLMAL			LMMAL			LMT1			LMT2			LMT5			RTHI			RTHI2			RTHI3			RTHI4			RLFC			RMFC			RTIB1			RTIB2			RTIB3			RTIB4			RLMAL			RMMAL			RHEE			RMT1			RMT2			RMT5			*60			
		X1	Y1	Z1	X2	Y2	Z2	X3	Y3	Z3	X4	Y4	Z4	X5	Y5	Z5	X6	Y6	Z6	X7	Y7	Z7	X8	Y8	Z8	X9	Y9	Z9	X10	Y10	Z10	X11	Y11	Z11	X12	Y12	Z12	X13	Y13	Z13	X14	Y14	Z14	X15	Y15	Z15	X16	Y16	Z16	X17	Y17	Z17	X18	Y18	Z18	X19	Y19	Z19	X20	Y20	Z20	X21	Y21	Z21	X22	Y22	Z22	X23	Y23	Z23	X24	Y24	Z24	X25	Y25	Z25	X26	Y26	Z26	X27	Y27	Z27	X28	Y28	Z28	X29	Y29	Z29	X30	Y30	Z30	X31	Y31	Z31	X32	Y32	Z32	X33	Y33	Z33	X34	Y34	Z34	X35	Y35	Z35	X36	Y36	Z36	X37	Y37	Z37	X38	Y38	Z38	X39	Y39	Z39	X40	Y40	Z40	X41	Y41	Z41	X42	Y42	Z42	X43	Y43	Z43	X44	Y44	Z44	X45	Y45	Z45	X46	Y46	Z46	X47	Y47	Z47	X48	Y48	Z48	X49	Y49	Z49	X50	Y50	Z50	X51	Y51	Z51	X52	Y52	Z52	X53	Y53	Z53	X54	Y54	Z54	X55	Y55	Z55	X56	Y56	Z56	X57	Y57	Z57	X58	Y58	Z58	X59	Y59	Z59	X60	Y60	Z60	X61	Y61	Z61	

697	3.48	225.3569946289063	1058.653076171875	-882.3122558593752	73.97488403320314	1118.843505859375	-965.9705200195315	54.74967575073244	1132.505004882813	-818.1245117187502	-60.04277801513673	1025.392822265625	-893.5554199218752	-314.6506958007813	842.0324707031252	-899.8167114257815	6.404009819030763	869.144470214844	-889.5275878906252	-16.18014144897461	942.9171142578127	-1062.61767578125	-167.4897155761719	973.5521240234377	-1174.091064453125	-166.6828155517578	931.2366943359377	-1202.354736328125	-218.0814971923829	956.3315429687502	-1220.71337890625	-265.6098022460938	913.9855957031252	-1263.459838867188	-322.5039062500001	929.0643310546877	-1184.021850585938	-322.0402526855469	721.2579956054689	-1103.266845703125	-313.3564147949219	674.2842407226564	-1165.086059570313	-278.7297973632813	676.8214111328126	-1068.12353515625	-27.64665222167969	956.7570800781252	-732.8209838867189	-194.3484039306641	994.5360107421877	-626.9472045898439	-200.5907440185547	953.257751464844	-600.1979370117189	-251.3295593261719	982.2760009765627	-586.3782348632814	-305.3768615722657	940.4509277343752	-549.9351196289064	-360.0054626464844	953.7568359375002	-625.6858520507814	-300.3809509277344	738.4488525390626	-699.9309692382814	-308.5376892089844	696.8919677734376	-635.6121215820314	-270.4627990722657	682.9232788085939	-731.2124633789064	-368.3323669433594	592.5715942382814	-1015.49853515625	-363.7559814453126	589.4226684570314	-787.948913574219	-441.1068115234376	767.0407104492189	-903.766540527344	-469.5686035156251	752.0288085937501	-931.7315063476565	-470.7403259277345	751.4500122070314	-874.6528930664065	-439.0184936523439	583.1291503906251	-1117.02587890625	-358.7026367187501	578.7523803710939	-1141.293579101563	-332.4864501953126	611.4648437500001	-1117.200073242188	-331.8282165527344	532.3073120117189	-1168.43359375	-201.7640533447266	432.8062133789064	-1206.696044921875	-139.5017700195313	422.5056152343751	-1093.235107421875	-200.4953918457032	265.4906921386719	-1112.731811523438	-243.453353881836	226.7384185791016	-1178.974731445313	-220.6681671142579	220.1109924316407	-1139.479736328125	-266.7578125000001	160.5108795166016	-1099.9853515625	-360.3912963867188	91.81201171875001	-1135.401733398438	-323.8487854003907	104.875602722168	-1051.48291015625	-208.6509094238282	63.84162902832033	-1101.6064453125	-217.7577209472657	63.61293411254884	-1145.27099609375	-268.0366821289063	42.8413314819336	-1182.388671875	-405.033172607422	555.7006835937501	-660.2771606445314	-340.8917236328126	557.1196899414064	-642.6210937500001	-321.4442749023438	582.6132812500001	-651.1356201171876	-292.4073181152344	492.2375793457032	-622.8045654296876	-169.0951538085938	418.2987670898439	-613.5036010742189	-119.1674499511719	422.7946777343751	-737.3512573242189	-153.0462799072266	294.6832885742188	-644.6754760742189	-253.8959045410157	249.5204315185547	-627.9846801757814	-213.3130340576172	231.9574432373047	-640.6763305664064	-223.9573516845704	192.1280670166016	-683.4684448242189	-353.6081237792969	89.39450073242189	-685.3832397460939	-308.0629882812501	101.8734359741211	-768.4856567382815	-407.684539794922	50.85414886474611	-751.2725219726564	-195.304183959961	53.67394256591798	-717.7826538085939	-205.8187103271485	57.46904373168947	-674.3687744140626	-262.9610290527344	31.38150596618653	-626.8408813476564	nan	nan	nan	
698	3.485	224.8236846923829	1063.7822265625	-883.2366333007815	72.07764434814455	1122.098754882813	-965.764343261719	53.15090942382814	1135.682983398438	-817.9921875000002	-60.44636917114259	1027.844482421875	-893.1008911132815	-313.5003967285157	842.8001708984377	-899.6738891601565	6.407095909118654	871.7092285156252	-888.873962402344	-15.96562671661377	944.7781982421877	-1062.279174804688	-167.2379455566407	974.7119750976565	-1174.118530273438	-165.76318359375	931.9038696289065	-1202.563232421875	-217.633773803711	957.313903808594	-1220.71875	-265.0411987304688	914.6860961914065	-1263.443115234375	-322.3093872070313	929.5650024414065	-1184.111083984375	-320.9576721191407	722.0367431640626	-1103.007690429688	-312.2393493652344	674.8922729492189	-1164.8447265625	-277.8053894042969	678.0014648437501	-1067.957763671875	-27.78099822998048	958.6738281250002	-732.3577270507814	-194.7006530761719	995.3684692382815	-626.3641357421876	-200.8859100341797	953.904235839844	-599.5979003906251	-251.5623321533204	983.004577636719	-585.7991333007814	-305.3049621582032	940.7813720703127	-549.7648925781251	-360.3865051269532	954.0731201171877	-625.0871582031251	-299.1184997558594	739.3215942382814	-699.9401855468751	-307.5273437500001	697.3152465820314	-635.6751098632814	-272.4929199218751	682.7682495117189	-734.8611450195314	-366.3894958496094	593.4381103515626	-1013.549499511719	-364.4370422363282	591.5578613281251	-785.9628906250002	-440.6630859375001	768.424499511719	-903.6655273437502	-468.8655395507814	753.1552734375001	-931.7390747070315	-470.7267456054689	752.8801879882814	-874.854675292969	-437.5665588378907	584.0408325195314	-1116.9111328125	-357.4928283691407	579.5463867187501	-1140.909301757813	-330.9948120117188	612.1756591796876	-1116.973876953125	-330.5117187500001	533.0086059570314	-1168.18798828125	-200.9579467773438	432.5896301269532	-1206.4716796875	-139.0133819580078	421.9995422363282	-1092.9033203125	-200.0356140136719	265.3635253906251	-1112.65771484375	-242.9013824462891	226.4132690429688	-1178.919677734375	-216.0815734863282	222.6890106201172	-1139.336059570313	-266.4495544433594	160.8028411865235	-1100.198486328125	-360.3477478027344	91.84057617187501	-1135.54248046875	-323.8324890136719	104.6993484497071	-1051.275146484375	-208.6342926025391	63.75138092041017	-1101.646606445313	-217.7563781738282	63.56302642822267	-1145.356201171875	-267.9520568847657	42.79062271118165	-1182.43505859375	-403.6562500000001	556.7719726562501	-660.4598388671876	-339.5814208984376	557.4914550781251	-642.6138916015626	-320.2890319824219	582.9447021484376	-651.4240112304689	-291.3526916503907	492.8393554687501	-623.4844970703126	-168.3560943603516	417.9863586425782	-613.8445434570314	-117.8502655029297	422.2992248535157	-738.3174438476564	-152.4151916503907	294.5761718750001	-645.4116821289064	-253.2944030761719	249.233627319336	-628.3599853515626	-212.8000488281251	231.5976867675782	-640.4807739257814	-223.3870086669922	191.967758178711	-683.7307739257814	-353.5428771972657	89.35221099853517	-685.4271850585939	-307.8763427734376	101.8068771362305	-768.7124633789065	-407.6312561035157	50.85867309570314	-751.2539062500001	-195.3418121337891	53.54344940185548	-717.6728515625001	-205.9981994628907	57.54380416870119	-675.0572509765626	-263.0075683593751	31.33402061462403	-626.8796997070314	nan	nan	nan	
699	3.49	223.840072631836	1069.365112304688	-883.493591308594	70.19425201416017	1125.663940429688	-965.5054931640627	51.08832931518556	1139.186645507813	-817.545104980469	-60.82155609130861	1030.683959960938	-892.745788574219	-313.7974548339844	845.3222656250002	-899.5466308593752	6.667820453643801	874.8608398437502	-888.4245605468752	-16.04662513732911	947.2236328125002	-1061.788452148438	-167.0888671875	976.0159301757815	-1174.190673828125	-165.5030517578125	933.2505493164065	-1202.384765625	-217.5061492919922	958.296569824219	-1220.778076171875	-264.4578247070313	915.406188964844	-1263.4287109375	-322.1595764160157	930.4026489257815	-1184.131591796875	-320.0409545898438	722.8804931640626	-1102.87841796875	-310.7563781738282	675.6794433593751	-1164.492065429688	-276.6196594238282	679.4490356445314	-1067.540283203125	-27.83577919006348	960.9822387695315	-732.3334960937501	-195.0200500488282	996.6932373046877	-625.5954589843751	-200.9564514160157	954.909118652344	-599.3999633789064	-251.8452911376954	983.742126464844	-585.1914672851564	-305.4280700683594	941.4290771484377	-549.3888549804689	-360.5982666015626	954.398132324219	-624.6454467773439	-298.2561645507813	740.3848266601564	-699.8648071289064	-305.5010375976563	698.0203247070314	-636.0029907226564	-268.6811523437501	684.9085083007814	-732.0244140625001	-363.6856994628907	596.1835937500001	-1013.609802246094	-362.7057495117188	593.6306762695314	-786.0405273437502	-440.0462646484376	770.130554199219	-903.587829589844	-467.9537048339845	754.6986694335939	-931.813171386719	-470.1228027343751	754.2092895507814	-874.792663574219	-435.9520874023439	585.2363281250001	-1116.890869140625	-355.8253173828126	580.4495239257814	-1140.5283203125	-329.2370910644532	612.7626953125001	-1116.788452148438	-329.2070007324219	533.8067016601564	-1167.873168945313	-200.1115112304688	432.496063232422	-1206.146362304688	-138.2447509765625	421.8106689453126	-1092.15576171875	-199.5901794433594	264.7698669433594	-1112.435302734375	-242.3635406494141	226.2057189941407	-1178.71826171875	-215.6123504638672	222.4599151611329	-1139.322631835938	-266.4086303710938	160.1184387207032	-1100.6708984375	-360.3118286132813	91.8859100341797	-1135.573852539063	-323.1747131347657	105.1904602050782	-1051.638427734375	-208.7044372558594	63.60247039794923	-1101.663696289063	-217.7443237304688	63.47204589843751	-1145.3740234375	-268.0209350585938	42.7092514038086	-1182.4794921875	-402.1989135742189	557.3999023437501	-660.8483276367189	-338.0574035644532	558.3933715820314	-643.1752319335939	-318.5458984375001	583.7070312500001	-651.7167968750001	-289.8103027343751	493.1583557128907	-623.7398071289064	-167.4604949951172	417.8927612304689	-614.4875488281251	-117.1700515747071	422.0630187988282	-738.8164672851564	-151.6723937988282	294.1613159179688	-645.5182495117189	-252.834213256836	248.9325561523438	-628.5917358398439	-211.9401397705079	231.2219543457032	-640.7187500000001	-221.2366943359376	192.4368896484376	-685.1100463867189	-353.4369506835938	89.31809234619142	-685.4486694335939	-307.8017883300782	101.7948150634766	-768.8171386718752	-407.6209411621095	50.96316528320314	-751.2144775390626	-195.6101226806641	53.61997604370119	-717.9117431640626	-205.8697204589844	57.16783905029298	-674.7372436523439	-263.0209045410157	31.34160423278809	-626.7471313476564	nan	nan	nan	
700	3.495	222.1400604248047	1075.309326171875	-883.202331542969	68.13327026367189	1129.681884765625	-965.548767089844	48.78023529052736	1143.353515625	-817.4609375000002	-61.22374725341798	1033.836791992188	-892.4231567382815	-313.1434631347657	847.3889770507815	-899.3062744140627	6.992143154144289	878.4485473632815	-887.9478759765627	-15.84189796447754	950.0985107421877	-1061.243041992188	-167.043441772461	977.8450317382815	-1174.179321289063	-165.3809814453125	934.498474121094	-1202.345825195313	-217.3324890136719	959.6752929687502	-1220.788452148438	-263.9492187500001	916.2622070312502	-1263.392456054688	-322.0394897460938	931.2664184570315	-1184.446899414063	-319.0279235839844	724.0718383789064	-1102.604125976563	-309.2387390136719	676.4602050781251	-1164.138305664063	-275.0595397949219	680.8479003906251	-1067.39306640625	-27.88013648986817	963.6076660156252	-732.3892822265626	-195.4594116210938	997.8533935546877	-624.7957763671876	-201.1673431396485	956.1546630859377	-598.9321899414064	-252.1585693359376	984.7218017578127	-584.5690307617189	-305.5834350585938	942.1770629882815	-548.9971923828126	-360.8825378417969	954.935241699219	-624.1055908203126	-297.1820373535157	741.7167358398439	-699.9664306640626	-303.5982360839844	699.2388916015626	-636.2518920898439	-269.6091308593751	685.7122802734376	-733.8750000000001	-361.3457641601563	597.1809692382814	-1011.166137695313	-362.3064880371094	596.8447875976564	-783.5987548828127	-438.9448852539064	772.065856933594	-903.5175781250002	-466.9149780273439	756.0674438476564	-931.8320922851565	-469.6028137207032	756.1173095703126	-874.7718505859377	-434.1884765625001	586.6342773437501	-1116.862060546875	-354.0493774414063	581.3964233398439	-1140.298095703125	-327.3361511230469	613.7994384765626	-1116.375854492188	-327.6859436035157	534.6910400390626	-1167.741088867188	-199.1862030029297	432.3657531738282	-1205.786499023438	-137.2137756347657	421.1462402343751	-1091.760864257813	-199.1918029785157	264.3984069824219	-1111.87841796875	-241.911117553711	225.9624633789063	-1178.664184570313	-215.0000762939454	222.2281951904297	-1139.137451171875	-266.2128295898438	159.9803619384766	-1100.6494140625	-360.2979431152344	91.92964935302736	-1135.66650390625	-323.2084960937501	104.8361053466797	-1051.420532226563	-208.7052612304688	63.564022064209	-1101.677124023438	-217.7807006835938	63.32773590087892	-1145.404296875	-268.0242614746094	42.70172500610352	-1182.51708984375	-400.453094482422	558.6790771484376	-660.6679077148439	-336.3356323242188	559.2435913085939	-643.5327758789064	-316.7182312011719	584.4437255859376	-652.0843505859376	-288.6583251953126	493.5570373535157	-624.5189208984376	-166.502426147461	417.589569091797	-614.7509155273439	-116.3567810058594	421.7241210937501	-739.2333374023439	-150.8933410644532	293.7847290039063	-645.7812500000001	-251.9621734619141	248.8753967285157	-628.9812011718751	-211.389633178711	231.0040435791016	-640.8493652343751	-220.6946716308594	191.6505584716797	-685.3286132812501	-353.3378295898438	89.47545623779298	-685.4132080078126	-307.5233459472657	101.7395553588867	-768.9595947265627	-407.5662231445314	51.04294967651369	-751.1772460937501	-195.4938659667969	53.52616500854494	-717.8073120117189	-205.6873779296876	57.28184890747072	-674.8225708007814	-262.9699096679688	31.30879211425782	-626.7979736328126	nan	nan	nan	
